<svg width="50" height="50" fill="none" xmlns="http://www.w3.org/2000/svg"><mask id="a" maskUnits="userSpaceOnUse" x="0" y="0" width="50" height="50"><path d="M25 50c13.807 0 25-11.193 25-25S38.807 0 25 0 0 11.193 0 25s11.193 25 25 25z" fill="#fff"/></mask><g mask="url(#a)"><path d="M25 50c13.807 0 25-11.193 25-25S38.807 0 25 0 0 11.193 0 25s11.193 25 25 25z" fill="#D8DADB"/><path fill-rule="evenodd" clip-rule="evenodd" d="M9.127 55.357c-1.095 0-1.984-.627-1.984-1.403V42.73c0-3.869 4.45-7.016 9.92-7.016h15.874c5.47 0 9.92 3.147 9.92 7.016v11.224c0 .776-.887 1.403-1.984 1.403H9.127z" fill="#fff"/><path d="M25 32.143c5.917 0 10.714-4.797 10.714-10.715 0-5.917-4.797-10.714-10.714-10.714-5.917 0-10.714 4.797-10.714 10.714 0 5.918 4.797 10.715 10.714 10.715z" fill="#fff"/></g><mask id="b" maskUnits="userSpaceOnUse" x="0" y="0" width="50" height="50"><path d="M25 50c13.807 0 25-11.193 25-25S38.807 0 25 0 0 11.193 0 25s11.193 25 25 25z" fill="#fff"/></mask><g mask="url(#b)"><path d="M25 49.25c13.393 0 24.25-10.857 24.25-24.25S38.393.75 25 .75.75 11.607.75 25 11.607 49.25 25 49.25z" stroke="#D8DADB" stroke-width="1.5"/></g></svg>