<?xml version="1.0" standalone="no"?>
<!DOCTYPE svg PUBLIC "-//W3C//DTD SVG 20010904//EN"
 "http://www.w3.org/TR/2001/REC-SVG-20010904/DTD/svg10.dtd">
<svg version="1.0" xmlns="http://www.w3.org/2000/svg"
 width="802.000000pt" height="311.000000pt" viewBox="0 0 802.000000 311.000000"
 preserveAspectRatio="xMidYMid meet">

<g transform="translate(0.000000,311.000000) scale(0.100000,-0.100000)"
fill="#000000" stroke="none">
<path d="M1133 2483 c-9 -3 -13 -26 -13 -64 0 -56 1 -59 24 -59 13 0 27 7 30
16 9 24 7 73 -4 95 -11 19 -16 21 -37 12z"/>
<path d="M883 2393 c-40 -16 12 -93 63 -93 36 0 30 32 -11 69 -20 17 -37 31
-38 30 -1 0 -8 -3 -14 -6z"/>
<path d="M1361 2370 c-47 -64 3 -97 52 -35 16 20 26 43 23 51 -10 25 -51 16
-75 -16z"/>
<path d="M1081 2260 c-130 -28 -241 -159 -241 -287 0 -28 -4 -43 -12 -43 -12
0 -174 50 -210 65 -15 6 -18 2 -18 -19 0 -19 -5 -26 -20 -26 -16 0 -20 -7 -20
-30 0 -36 18 -216 25 -247 4 -16 -3 -26 -29 -41 -51 -30 -69 -72 -64 -152 4
-80 36 -137 92 -164 38 -18 40 -23 54 -140 6 -52 10 -60 32 -66 14 -4 50 -15
81 -24 l56 -16 7 -93 c18 -239 81 -444 144 -468 38 -15 93 -4 113 23 10 12 22
47 28 78 6 31 18 66 27 79 21 29 89 60 132 61 l32 0 0 -87 c0 -100 19 -152 60
-167 37 -12 93 15 128 63 57 78 114 297 138 524 5 49 9 60 30 69 23 11 24 15
24 114 l0 102 44 26 c58 34 88 77 94 136 7 75 -48 159 -113 171 -19 4 -20 13
-23 153 -2 126 -5 147 -17 142 -8 -3 -22 -9 -30 -12 -11 -5 -15 1 -15 20 0 32
-4 32 -74 1 -64 -28 -66 -29 -66 -15 0 35 -48 127 -91 174 -76 83 -187 119
-298 96z m145 -65 c89 -26 165 -112 179 -200 l7 -41 -144 -61 -144 -62 -111
35 c-125 39 -132 46 -113 130 19 83 64 145 131 180 72 37 120 42 195 19z m384
-403 c0 -109 -2 -121 -21 -138 -30 -27 -49 -76 -49 -128 0 -56 12 -88 45 -118
25 -23 26 -29 23 -113 l-3 -89 -195 -78 c-107 -42 -198 -74 -201 -70 -4 4 -12
81 -18 172 -7 91 -18 246 -26 345 -11 140 -11 182 -2 188 14 10 416 145 435
146 9 1 12 -29 12 -117z m-864 52 c55 -15 115 -30 134 -34 45 -10 204 -51 207
-53 1 -2 26 -293 46 -550 7 -87 10 -160 7 -161 -7 -4 -430 111 -437 118 -3 3
-9 37 -12 76 l-7 70 37 29 c26 21 40 43 48 75 20 81 -7 146 -76 182 -21 10
-40 20 -41 21 -2 1 -9 58 -16 127 -9 98 -9 126 0 126 6 0 56 -12 110 -26z
m971 -226 c46 -51 30 -130 -31 -163 -44 -24 -63 -15 -76 35 -13 48 -2 91 32
127 27 29 49 29 75 1z m-1024 -99 c34 -41 15 -119 -35 -145 -38 -20 -62 -11
-88 32 -27 43 -29 127 -5 154 16 18 18 18 63 -1 26 -11 55 -29 65 -40z m847
-513 c0 -68 -62 -312 -95 -376 -20 -38 -62 -73 -79 -67 -13 5 -16 27 -16 127
l0 120 -63 0 c-81 0 -148 -23 -192 -65 -31 -31 -39 -48 -62 -145 -12 -49 -45
-53 -72 -9 -37 61 -103 372 -83 390 4 4 86 -13 182 -38 l175 -44 145 65 c80
35 148 65 153 65 4 1 7 -10 7 -23z"/>
<path d="M5130 1476 c0 -549 0 -556 20 -556 19 0 20 7 20 210 l0 210 173 0
c241 0 328 25 416 119 60 63 76 112 76 226 -1 114 -18 165 -76 224 -95 95
-151 111 -421 118 l-208 6 0 -557z m466 487 c74 -25 122 -59 155 -111 40 -64
52 -115 46 -194 -8 -95 -48 -166 -121 -214 -66 -44 -123 -54 -323 -54 l-183 0
0 295 0 295 188 0 c149 0 199 -3 238 -17z"/>
<path d="M6000 1476 l0 -556 295 0 c288 0 295 0 295 20 0 20 -7 20 -275 20
l-275 0 -2 532 c-3 498 -4 533 -20 536 -17 3 -18 -28 -18 -552z"/>
<path d="M6760 1473 l0 -553 305 0 c298 0 305 0 305 20 0 19 -8 20 -286 22
l-286 3 0 240 1 240 223 5 c202 5 223 7 226 23 3 16 -12 17 -207 18 -116 1
-215 3 -221 4 -5 1 -15 3 -21 4 -7 1 -9 77 -7 239 l3 237 283 3 c281 2 283 3
280 23 -3 21 -7 21 -301 22 l-297 2 0 -552z"/>
<path d="M2697 2006 c-164 -48 -259 -207 -215 -360 15 -54 62 -119 107 -150
38 -27 166 -86 184 -86 6 0 48 -18 94 -40 91 -45 113 -71 113 -137 0 -72 -54
-113 -148 -113 -84 0 -113 10 -161 59 -25 25 -51 55 -57 66 -11 19 -14 19 -93
-20 -49 -24 -81 -46 -81 -56 0 -25 53 -101 103 -146 146 -134 413 -138 565 -8
68 58 95 114 100 206 4 70 2 84 -22 133 -15 31 -46 72 -70 93 -49 43 -168 105
-266 138 -95 32 -128 51 -145 85 -42 82 13 160 115 160 57 0 108 -24 160 -75
l45 -44 75 46 c41 25 77 47 79 49 2 2 -15 28 -38 58 -42 56 -95 98 -166 131
-52 24 -210 30 -278 11z"/>
<path d="M3360 1475 l0 -535 110 0 110 0 0 535 0 535 -110 0 -110 0 0 -535z"/>
<path d="M4670 1945 c-16 -33 -92 -199 -170 -370 -78 -170 -145 -316 -150
-325 -8 -15 -19 5 -117 220 -31 69 -127 276 -183 395 -23 50 -46 100 -51 113
-8 21 -14 22 -119 22 l-110 0 0 -530 0 -530 110 0 110 0 0 275 c0 151 4 275 8
275 9 0 31 -46 158 -342 l89 -208 95 0 96 0 119 273 c65 149 122 276 127 281
4 6 8 -117 8 -272 l0 -283 110 3 111 3 -1 524 c0 289 -1 526 -3 527 -1 1 -49
4 -106 6 l-104 4 -27 -61z"/>
</g>
</svg>
